<svg width="59" height="66" viewBox="0 0 59 66" fill="none" xmlns="http://www.w3.org/2000/svg">
<path d="M31.618 36.9049C31.618 40.0696 31.8197 42.826 32.2231 45.174C32.7274 47.522 33.2316 49.6148 33.7359 51.4524C34.341 53.1879 34.8453 54.6682 35.2487 55.8933C35.753 57.1183 36.0051 58.1902 36.0051 59.109C36.0051 60.9466 35.3496 62.58 34.0385 64.0093C32.7273 65.3364 31.1641 66 29.3487 66C27.2308 66 25.5162 65.2854 24.2051 63.8561C22.9949 62.3248 22.3897 60.5383 22.3897 58.4965C22.3897 57.7819 22.5915 56.8631 22.9949 55.7401C23.4991 54.6172 24.0034 53.239 24.5077 51.6056C25.1128 49.8701 25.6675 47.8283 26.1718 45.4803C26.6761 43.0302 26.9786 40.1717 27.0795 36.9049C22.9444 39.2529 19.9188 41.3967 18.0026 43.3364C16.0863 45.2761 14.5735 46.9606 13.4641 48.3898C12.4556 49.819 11.5479 50.942 10.741 51.7587C10.035 52.4733 8.77436 52.8306 6.95897 52.8306C5.04274 52.8306 3.37863 52.167 1.96667 50.8399C0.655556 49.4107 0 47.7262 0 45.7865C0 43.4385 0.655556 41.8051 1.96667 40.8863C3.27778 39.9675 5.04274 39.2529 7.26154 38.7425C9.5812 38.232 12.2034 37.6195 15.1282 36.9049C18.1538 36.1903 21.3812 34.8631 24.8103 32.9234C21.7846 31.1879 19.1624 29.9629 16.9436 29.2483C14.7248 28.5336 12.8085 28.0232 11.1949 27.7169C9.5812 27.4107 8.16923 27.2065 6.95897 27.1044C5.84957 27.0023 4.84103 26.645 3.93333 26.0325C2.72308 25.3179 1.81539 24.4501 1.21026 23.4292C0.605129 22.3063 0.302565 21.1322 0.302565 19.9072C0.302565 17.8654 1.00855 16.232 2.42051 15.007C3.93333 13.6798 5.59744 13.0162 7.41282 13.0162C8.72393 13.0162 9.98462 13.5777 11.1949 14.7007C12.4051 15.7216 13.7162 17.0487 15.1282 18.6821C16.641 20.2135 18.3556 21.949 20.2718 23.8886C22.188 25.7262 24.5077 27.4107 27.2308 28.942C27.2308 22.6125 26.3735 17.406 24.659 13.3225C24.1547 12.5058 23.7009 11.4849 23.2974 10.2599C22.894 8.93271 22.6923 7.86079 22.6923 7.04408C22.6923 5.00232 23.2974 3.31787 24.5077 1.99072C25.8188 0.663574 27.4829 0 29.5 0C31.5171 0 33.1812 0.663574 34.4923 1.99072C35.8034 3.31787 36.459 5.00232 36.459 7.04408C36.459 7.86079 36.2573 8.88167 35.8538 10.1067C35.4504 11.2297 34.9966 12.3016 34.4923 13.3225C33.4838 15.4664 32.7778 17.8144 32.3744 20.3666C32.0718 22.8167 31.8701 25.6752 31.7692 28.942C35.4 26.7981 38.1735 24.7564 40.0897 22.8167C42.006 20.877 43.5188 19.1926 44.6282 17.7633C45.8385 16.232 46.847 15.058 47.6538 14.2413C48.5615 13.4246 49.8727 13.0162 51.5872 13.0162C53.5034 13.0162 55.1675 13.6798 56.5795 15.007C57.9915 16.3341 58.6974 17.9675 58.6974 19.9072C58.6974 22.3573 58.1932 23.9907 57.1846 24.8074C56.1761 25.522 54.6128 26.0835 52.4949 26.4919C50.4778 26.9002 47.906 27.5128 44.7795 28.3295C41.7538 29.0441 38.2239 30.5754 34.1897 32.9234C37.9214 35.1694 41.3 36.6496 44.3256 37.3643C47.4521 37.9768 50.0744 38.4872 52.1923 38.8956C54.4111 39.3039 56.0752 39.9675 57.1846 40.8863C58.3949 41.703 59 43.3875 59 45.9397C59 47.9814 58.2436 49.6148 56.7308 50.8399C55.3188 52.065 53.7051 52.6775 51.8897 52.6775C50.6795 52.6775 49.4692 52.3202 48.259 51.6056C47.0487 50.8909 45.6872 49.3086 44.1744 46.8585C43.2667 45.4292 41.7034 43.7958 39.4846 41.9582C37.2658 40.1206 34.6436 38.4362 31.618 36.9049Z" fill="#B6C24C"/>
</svg>
